<svg version="1.1" xmlns="http://www.w3.org/2000/svg" x="0px" y="0px" height="24" viewBox="0 0 24 24" enable-background="new 0 0 24 24" xml:space="preserve">
  <g
     transform="matrix(0.1973376,0,0,0.18452702,-47.855494,-35.46014)"
     id="layer1">
    <path
       d="m 279.59857,231.70147 v -6.94 h -7.46 c 0,0 -5.4,0 -5.4,7.09 0,7.09 0,16.42 0,16.42 0,0 -0.07,4.54 -4.5,4.54 v 6.45 h 1.99 c 0,0 2.44,-0.15 2.44,2.93 0,3.07 0,42.15 0,42.15 0,0 -0.22,7.05 6.3,7.05 6.53,0 57.3,0 57.3,0 0,0 5.81,-0.38 5.81,-7.05 0,-6.67 0,-7.5 0,-7.5 0,0 -0.04,-4.12 4.54,-4.12 v -6.23 c 0,0 -4.46,0.08 -4.46,-4.65 0,-4.72 0,-6.56 0,-6.56 0,0 0.15,-7.54 -5.96,-7.54 -6.11,0 -7.05,0 -7.05,0 v 7.2 h 3.56 c 0,0 2.62,0.11 2.62,3.45 0,3.34 0,6.97 0,6.97 0,0 0.45,4.24 5.33,4.24 0,0 -5.4,0.3 -5.4,5.25 0,4.95 0,5.81 0,5.81 0,0 0.3,3.75 -3.04,3.75 -3.34,0 -49.95,0 -49.95,0 0,0 -2.78,-0.08 -2.78,-4.01 0,-3.93 0,-39.11 0,-39.11 0,0 0.08,-5.36 -5.55,-5.36 0,0 5.59,-0.38 5.59,-4.69 0,-4.31 0,-16.54 0,-16.54 0,0 0.3,-3.04 3,-3.04 2.7,0 3.07,0.04 3.07,0.04 z"
       id="path287"
       style="fill:#cccccc;fill-opacity:1;fill-rule:evenodd" />
  </g>
  <path
     d="m 14.097296,2.034441 c -3.396182,0 -6.1490416,2.5741521 -6.1490416,5.7498617 0,3.1757123 2.7528596,5.7498653 6.1490416,5.7498653 3.39618,0 6.149039,-2.574153 6.149039,-5.7498653 0,-3.1757096 -2.752859,-5.7498617 -6.149039,-5.7498617 z m 0.0888,9.964462 c -2.452907,0 -4.440097,-1.858188 -4.440097,-4.1518612 0,-2.2936708 1.98719,-4.1518574 4.440097,-4.1518574 2.452908,0 4.440097,1.8581866 4.440097,4.1518574 0,2.2918282 -1.987189,4.1518612 -4.440097,4.1518612 z"
     id="path416"
     style="fill:#cccccc;fill-opacity:1" />
  <path
     d="m 8.9874143,19.044141 c 0,0 -0.2170712,0.232505 -1.3596558,-0.378279 -1.1425848,-0.61263 -0.9709011,-0.870969 -0.9709011,-0.870969 l 4.0947576,-6.681725 2.330556,1.249248 -4.0947567,6.681725 z"
     id="path306"
     style="fill:#cccccc;fill-opacity:1" />
  <path
     d="M 13.14367,11.847504 C 12.605705,11.72553 11.92402,11.40766 11.442469,11.054241 10.354849,10.256024 9.7074821,8.9087086 9.7985861,7.6329631 9.9256775,5.8532778 11.189864,4.392499 13.056023,3.8689646 c 0.625682,-0.1755298 1.680784,-0.1615276 2.357057,0.031281 1.411859,0.4025291 2.537836,1.4394226 2.979943,2.7441786 0.127034,0.3749036 0.155434,0.6094575 0.151605,1.2521493 -0.0041,0.7167672 -0.025,0.8411071 -0.221459,1.3276873 -0.537706,1.3318062 -1.703203,2.3110582 -3.121523,2.6227102 -0.559805,0.122992 -1.516737,0.123254 -2.057976,5.49e-4 l 0,9e-6 z"
     id="path8761"
     style="opacity:0.5;fill:#cccccc;fill-opacity:1;stroke:none" />
  <path
     d="m 14.184814,5.580975 c 1.257243,0 2.274102,0.8769174 2.274102,1.9574632 0,0.177354 -0.02863,0.3497816 -0.08012,0.5139984 l 1.455654,0.4548802 c 0.108746,-0.3054431 0.167887,-0.6305921 0.167887,-0.9672364 0,-1.8162369 -1.711301,-3.2876184 -3.821333,-3.2876184 -0.02862,0 -0.05724,0 -0.08586,0 v 1.3317975 c 0.03244,-0.00328 0.06105,-0.00328 0.08966,-0.00328 z"
     id="path465"
     style="opacity:0.5;fill:#cccccc;fill-opacity:1" />
  <text
     x="8.0182858"
     y="21.121178"
     transform="scale(0.98121003,1.0191498)"
     id="text8969"
     xml:space="preserve"
     style="font-size:0.3726438px;font-style:normal;font-weight:normal;line-height:125%;letter-spacing:0px;word-spacing:0px;fill:#aaaaaa;fill-opacity:1;stroke:none;font-family:Sans"><tspan
       x="8.0182858"
       y="21.121178"
       id="tspan8971"
       style="font-style:normal;font-variant:normal;font-weight:normal;font-stretch:normal;fill:#aaaaaa;fill-opacity:1;font-family:Monospace;-inkscape-font-specification:Monospace">Elasticsearch logo by Sineflow Ltd.</tspan></text>
</svg>
